# xmcd CD database file
#
# Track frame offsets:
#	150
#	26230
#	62652
#
# Disc length: 4440 seconds
#
# Revision: 0
# Processed by: cddbd v1.5PL3 Copyright (c) Steve Scherf et al.
# Submitted via: CDex 1.50
#
DISCID=22115603
DTITLE=Nao - Everything
DYEAR=2003
DGENRE=JPop
TTITLE0=Everything
TTITLE1=野に咲く花
TTITLE2=data
EXTD=YEAR: 2003
EXTT0=
EXTT1=
EXTT2=
PLAYORDER=
